<svg xmlns="http://www.w3.org/2000/svg" viewBox="0 0 95 80.7"><defs><style>.cls-1{fill:#fff;}</style></defs><g id="Layer_1" data-name="Layer 1"><path class="cls-1" d="M20.2,75.7h8.1a3,3,0,0,0,3-3V55.8a3,3,0,0,0-3-3H20.2a3,3,0,0,0-3,3V72.7A3,3,0,0,0,20.2,75.7Z" transform="translate(-2.5 -9.7)"/><path class="cls-1" d="M41,75.7h8.1a3,3,0,0,0,3-3V41.4a3,3,0,0,0-3-3H41a3,3,0,0,0-3,3V72.6A3,3,0,0,0,41,75.7Z" transform="translate(-2.5 -9.7)"/><path class="cls-1" d="M61.8,75.7h8.1a3,3,0,0,0,3-3V27.1a3,3,0,0,0-3-3H61.8a3,3,0,0,0-3,3V72.7A3,3,0,0,0,61.8,75.7Z" transform="translate(-2.5 -9.7)"/><path class="cls-1" d="M82.6,75.7h8.1a3,3,0,0,0,3-3v-60a3,3,0,0,0-3-3H82.6a3,3,0,0,0-3,3V72.6A3,3,0,0,0,82.6,75.7Z" transform="translate(-2.5 -9.7)"/><path class="cls-1" d="M93.7,82.7H10.1V13.6a3.8,3.8,0,0,0-7.6,0v73a3.8,3.8,0,0,0,3.8,3.8H93.7a3.85,3.85,0,0,0,0-7.7Z" transform="translate(-2.5 -9.7)"/></g></svg>