<svg id="Layer_1" data-name="Layer 1" xmlns="http://www.w3.org/2000/svg" viewBox="0 0 58 58"><defs><style>.cls-1{fill:#fff;}</style></defs><path class="cls-1" d="M54,31H34a7,7,0,0,0-7,7v8a7,7,0,0,0,7,7H45.25c1.66,3.37,4.73,6,9.36,7.92a1,1,0,0,0,1.27-1.39,17.06,17.06,0,0,1-2-6.53H54a7,7,0,0,0,7-7V38A7,7,0,0,0,54,31Zm2,16H38V45H56Zm0-4H44V41H56Zm0-4H38V37H56Z" transform="translate(-3 -3)"/><path class="cls-1" d="M54,3H34a7,7,0,0,0-7,7v3a7,7,0,0,0,7,7H45.25c1.66,3.37,4.73,6,9.36,7.92a1,1,0,0,0,1.27-1.39,17.06,17.06,0,0,1-2-6.53H54a7,7,0,0,0,7-7V10A7,7,0,0,0,54,3Zm2,12H44V13H56Zm0-4H38V9H56Z" transform="translate(-3 -3)"/><path class="cls-1" d="M10,44h.14a17.06,17.06,0,0,1-2,6.53,1,1,0,0,0,.42,1.35,1,1,0,0,0,.85,0c4.63-2,7.7-4.55,9.36-7.92H25V38a9,9,0,0,1,9-9h3a7,7,0,0,0-7-7H10a7,7,0,0,0-7,7H3v8A7,7,0,0,0,10,44ZM7,28H25v2H7Zm0,4H19v2H7Zm0,4H22v2H7Z" transform="translate(-3 -3)"/></svg>