<svg id="Слой_2" data-name="Слой 2" xmlns="http://www.w3.org/2000/svg" xmlns:xlink="http://www.w3.org/1999/xlink" viewBox="0 0 3500 2000"><defs><style>.cls-1,.cls-3{fill:#a6d9f1;}.cls-2{fill:#fff;}.cls-3{opacity:0.3;}.cls-4{fill:#b77446;}.cls-5{fill:#365da4;}.cls-6{fill:#285493;}.cls-7{fill:#aa443e;}.cls-8{fill:#d9935c;}.cls-9{fill:#80bdcc;}.cls-10{fill:#5f9aa8;}.cls-11{fill:#a86337;}.cls-12,.cls-15{fill:#ca5f00;}.cls-13{fill:#e69d43;}.cls-14{fill:#cc7c46;}.cls-15{opacity:0.4;}.cls-16{clip-path:url(#clip-path);}.cls-17{fill:#d5e7f7;}.cls-18{fill:#c4d9ed;}.cls-19{fill:#415da5;}.cls-20{fill:#355493;}.cls-21{fill:#163560;}.cls-22{fill:#ebba56;}.cls-23{fill:#e7a329;}.cls-24{fill:#e58638;}.cls-25{fill:#9e3a38;}.cls-26{fill:#db772c;}.cls-27{fill:#3b76ca;}.cls-28{fill:#699dee;}.cls-29{fill:#cff1ff;}.cls-30{fill:#e49963;}.cls-31{fill:#b74b42;}.cls-32{fill:#d68d5d;}.cls-33{fill:#c45446;}.cls-34{fill:#e37970;}.cls-35{fill:#d6716b;}.cls-36{fill:#b84c42;}.cls-37{fill:#283250;}</style><clipPath id="clip-path"><rect class="cls-1" x="984.77" y="365.34" width="693.81" height="1280.74"/></clipPath></defs><rect class="cls-2" width="3500" height="2000"/><path class="cls-3" d="M2807,1823.41s314.34-7.47,448.66-197.71c243.34-344.64,133.68-646.87-299.54-624.37-484.64,25.16-556-877.35-1395.17-363C1378.68,750,722.16,479.62,755.72,807,766.54,912.57,667,931.21,338,1053.82c-307.1,114.47-121.15,772,156,774.48S2807,1823.41,2807,1823.41Z"/><path class="cls-4" d="M493.83,1813.49c.94,11.56,17.25,11.56,35.75,9.28s13.61,2.43,39.54,2.6,34.8-8.46,36-12.18c1.09-3.29-11.42-6-24.8-9.12-1.68-.39-3.37-.8-5.06-1.21a68,68,0,0,1-38.1-24.67c-11.25-14.41-21.53-80-21.53-80l-40.51,7.56s23.58,56.24,26,74.68c1.09,8.28-4.8,13.8-6.18,21A45.45,45.45,0,0,0,493.83,1813.49Z"/><path class="cls-5" d="M528.25,1824.5c18.5-2.29,14.94.7,40.87.87s34.8-8.46,36-12.18c1.09-3.29-11.42-6-24.8-9.12l-.15.25a72.67,72.67,0,0,1-38,7.09c-17.42-1.61-35.23-8.75-47.24-10a45.45,45.45,0,0,0-1.14,12C494.77,1825.05,509.75,1826.79,528.25,1824.5Z"/><path class="cls-5" d="M530.06,1744.79s-10.62,7-20.59,8.84c-15,2.72-21.92-.3-21.92-.3s-72-180.73-67.87-241.8c.1-1.47.16-3,.17-4.68.12-10.6-1.4-24.72-4-41-1-6-2.09-12.2-3.33-18.66-2.89-15.06-6.46-31.3-10.39-47.87-1.72-7.29-3.53-14.64-5.36-22-18.09-72.26-40.21-143.48-40.21-143.48s129.9-42.43,137.25-2.77c2.82,15.22,12.2,76.12,8,169.23-3.41,75-1.21,133.43,5.27,201.28C512.72,1661.21,522.47,1712.47,530.06,1744.79Z"/><path class="cls-6" d="M419.85,1506.85c.12-10.6-1.4-24.72-4-41-1-6-2.09-12.2-3.33-18.66-2.89-15.06-6.46-31.3-10.39-47.87-1.72-7.29-3.53-14.64-5.36-22,2.57-22,4.64-37.18,4.64-37.18S455.31,1413.43,419.85,1506.85Z"/><path class="cls-4" d="M330,1813.49c.94,11.56,17.25,11.56,35.75,9.28s13.62,2.43,39.54,2.6,34.8-8.46,36-12.18c1.09-3.29-11.41-6-24.8-9.12-1.68-.39-3.37-.8-5.06-1.21-15.09-3.72-25.14-14.92-38.1-24.67-12.28-9.23-3.69-54-3.69-54l-38.09-13.6s5.74,45,5.74,69.84c0,8.35-4.8,13.8-6.18,21A45.45,45.45,0,0,0,330,1813.49Z"/><path class="cls-5" d="M363.69,1824.62c18.5-2.28,15.64.58,41.56.75s34.8-8.46,36-12.18c1.09-3.29-11.41-6-24.8-9.12l-.15.25a72.67,72.67,0,0,1-38,7.09c-17.42-1.61-35.22-8.75-47.24-10a45.45,45.45,0,0,0-1.14,12C330.9,1825.05,345.19,1826.91,363.69,1824.62Z"/><path class="cls-5" d="M434.78,1219.74s-42.26,210.63-49.4,325.26-16.05,209.54-16.05,209.54a55.74,55.74,0,0,1-19.8,2.72,72.88,72.88,0,0,1-20-4.08s-41.89-172.47-28-241.51,2.32-132.72-4.34-190c-9.55-82.11,27.19-120.27,52.84-146.29C375.94,1149.07,434.78,1219.74,434.78,1219.74Z"/><path class="cls-7" d="M464.73,834c4.2-34.29-6.51-89.16-75-80.39s-90,76-76.21,105.93-19.87,37.12-30.44,69.28c-9.08,27.63-12.25,61.94-26.94,77.33-47.38,49.64,45.49,126,101.47,109.87,102-29.31,115.11-33.69,111.49-113.81-1.86-41-33.8-57-13.52-68.84C504.62,904.65,455.23,911.56,464.73,834Z"/><path class="cls-8" d="M444,944.09l-20.24,30.37-40.79-2-18.84-48.7s5.81-1.11,8.52-61.84l50.91,15.53a99.12,99.12,0,0,0,.9,33.08C427,922.54,432.49,935.37,444,944.09Z"/><path class="cls-8" d="M449.69,922.66c-2.62,0-50.58-16-119.06,11.85,0,0,32.51,186,18.54,221.5a375.23,375.23,0,0,0-19.27,67l151.5,1.88s-2.12-121.84,4.86-165S449.69,922.66,449.69,922.66Z"/><path class="cls-9" d="M701.3,1047.82c-.45-5.3-2.12-6.51-2.12-6.51-48.43,7.12-80.53,6.72-96.26,9.78-12.36,2.4-17.41,2.74-19.53-.25C516.48,956.75,469.12,927.2,469.12,927.2s-5.05-3-24.8-5.72c0,0-2.84,35.77-21.23,38.81-31.8,5.24-55.58-23.91-63.06-35.63,0,0-38.36,9.24-49.08,21.45-7.7,8.78-6.7,29.79-4.41,43a58.09,58.09,0,0,0,2.32,9.57c2.26,6,10.81,49.85,14.71,67.31q.14.66.27,1.23c.27,1.17.5,2.19.72,3a.64.64,0,0,1,0,.07c.23.93.42,1.66.57,2.13l.27.85a.14.14,0,0,0,0,.06c5.63,18,9,36.26,7,58.71a63.75,63.75,0,0,1-1.74,9.41c-5.09,26.08-26.23,77.51-30.62,101.12,2.53,5.33,8.26,9.55,15.24,12.92,9.09,4.39,20.28,7.32,29.18,9.36a284.41,284.41,0,0,0,29.73,4.73c6.48.73,13.43,1.34,20.51,1.75,1,.07,2,.12,3,.16,45.64,2.27,96.74,1.15,103.4-20.55,3.19-10.41-9.53-73-11.23-91.61-3-32.67,1.87-77.41,4.05-112.05,37.46,41.27,76.11,56.12,76.11,56.12a187.08,187.08,0,0,0,31.06-4.67c12-2.67,24.52-6.23,36.52-10A604.08,604.08,0,0,0,703.47,1063S702.3,1059.51,701.3,1047.82Z"/><path class="cls-10" d="M430.15,1201.6c-8.65,29.33-13.67,53.46-35.38,69.78-7.08-.41-14-1-20.51-1.75a284.41,284.41,0,0,1-29.73-4.73c-8.9-2-20.09-5-29.18-9.36-7-3.37-12.71-7.59-15.24-12.92,4.39-23.61,25.53-75,30.62-101.12a64.15,64.15,0,0,0,1-6.84c1.88-23.37-1.15-42.56-6.3-61.28a.14.14,0,0,1,0-.06l-.84-3a.64.64,0,0,0,0-.07c-.18-.65-.43-1.69-.72-3q-.13-.57-.27-1.23c-3.48-16.55-12.6-68.47-14.92-75.24a68.7,68.7,0,0,1-2.27-10.34l18.24-17.55s104.65,44.69,127.7,106.33S442.56,1159.54,430.15,1201.6Z"/><path class="cls-10" d="M637.66,1088.74c-23.17,7.35-48.37,13.79-67.58,14.71,0,0-38.42-14.22-76.11-56.12-1.59-7.12-3.87-19.89,4.76-16.45,12.1,4.84,56.84,62.29,73.78,63.5C584.62,1095.24,619.07,1091.15,637.66,1088.74Z"/><path class="cls-9" d="M555,1072.38s-51.58,25.91-96.31,36.63c-12.87,3.09-25.27,5.27-35.84,5.77,0,0-48.1-14.79-84.81-66.21-70.9-99.32-16.16-110-16.16-110s47.36,29.55,114.26,123.64c2.34,3.29,8.22,2.54,23.44-.53,16.26-3.28,48.61-2.89,93.27-9.45,0,0,.75,1.66,1.21,7C555.06,1070.85,555,1072.38,555,1072.38Z"/><path class="cls-11" d="M703.47,1063a604.08,604.08,0,0,1-65.81,25.77c-12,3.81-24.55,7.37-36.52,10-4.81-21.37-1.49-38,1.78-47.69,15.73-3.06,49.34-3.27,97.78-10.38Z"/><path class="cls-11" d="M688.6,1043.72s12.25-2.38,22.46-7.49,37.44-8.5,43.22-3.06-6.12,27.57-31,28.25-32,4.76-32,4.76Z"/><path class="cls-12" d="M732.77,968.36,594.26,995.28c-6.06,1.18-11,7.11-11,13.17v95.73c0,6.06,5,10.06,11,8.88l138.51-26.93c6.07-1.17,11-7.1,11-13.16V977.24C743.8,971.18,738.84,967.18,732.77,968.36Z"/><path class="cls-13" d="M738.29,968.36,599.78,995.28c-6.06,1.18-11,7.11-11,13.17v95.73c0,6.06,5,10.06,11,8.88l138.51-26.93c6.06-1.17,11-7.1,11-13.16V977.24C749.32,971.18,744.35,967.18,738.29,968.36Z"/><path class="cls-12" d="M602.08,1002.76a5.78,5.78,0,0,0-4.53,5.41,3.63,3.63,0,0,0,4.53,3.65,5.78,5.78,0,0,0,4.53-5.41A3.63,3.63,0,0,0,602.08,1002.76Z"/><path class="cls-4" d="M617.53,1040.54c-6.18-5.81-35.24-2.18-46.14,3.27a99.2,99.2,0,0,1-18.3,6.65v-.08c-44.66,6.56-77.24,8-93.5,11.27,5.09,11,8.93,27.95-.89,47.36,42.72-10.23,92.77-33.09,97.19-35.12,5-1.28,13.89-2.79,28.59-3.19C611,1070,623.7,1046.35,617.53,1040.54Z"/><path class="cls-14" d="M424.47,910.52c-21.05-1.71-51.81-48.61-51.81-48.61l50.91,15.53A99.12,99.12,0,0,0,424.47,910.52Z"/><path class="cls-8" d="M436.9,880.89s-61,12.24-68-25.84-19.65-62.15,19-71.58,48.89,3.71,54.33,15.85S452.58,876.72,436.9,880.89Z"/><path class="cls-7" d="M443,776.65c-30.07-29.63-57.79-14.8-53.37-8.84-10.42.32-23.42,3.19-32.72,13.65-18,20.28,15.61,83.66,15.61,83.66s-4.63-38.94,15.42-60.86c7.95-8.69,12.57-16,15.26-21.57a44.57,44.57,0,0,0,13.8,8.38c19.4,6.81,30.06,38,30.06,38C454,814.52,455.94,789.42,443,776.65Z"/><path class="cls-2" d="M417.91,862.15s1.63,4.52,13.11,2.47c0,0,9.63-1.72,8.75-6.79C439.77,857.83,429.94,855.28,417.91,862.15Z"/><rect class="cls-12" x="834.42" y="239.78" width="834.5" height="1583.42" rx="42.7"/><rect class="cls-13" x="915.31" y="239.78" width="834.5" height="1583.42" rx="42.7"/><path class="cls-15" d="M1454.86,299.71H1237.93a8.47,8.47,0,0,0-8.44,8.44h0a8.46,8.46,0,0,0,8.44,8.44h216.93a8.46,8.46,0,0,0,8.44-8.44h0A8.47,8.47,0,0,0,1454.86,299.71Z"/><path class="cls-15" d="M1199.4,299.71a8.47,8.47,0,0,0-8.44,8.44h0a8.44,8.44,0,1,0,16.88,0h0A8.47,8.47,0,0,0,1199.4,299.71Z"/><path class="cls-15" d="M1342.9,1681.28a54.44,54.44,0,1,0,54.43,54.43A54.43,54.43,0,0,0,1342.9,1681.28Z"/><rect class="cls-1" x="984.77" y="365.34" width="693.81" height="1280.74"/><g class="cls-16"><rect class="cls-17" x="984.77" y="365.34" width="693.81" height="176.05"/><circle class="cls-18" cx="1076.02" cy="451.63" r="55.9" transform="translate(-89.99 404.67) rotate(-20.46)"/><path class="cls-18" d="M1505.66,449.61h-325A19.7,19.7,0,0,1,1161.05,430h0a19.7,19.7,0,0,1,19.65-19.65h325A19.7,19.7,0,0,1,1525.31,430h0A19.7,19.7,0,0,1,1505.66,449.61Z"/><path class="cls-18" d="M1367.38,497H1171.86A11.86,11.86,0,0,1,1160,485.15h0a11.86,11.86,0,0,1,11.82-11.83h195.52a11.86,11.86,0,0,1,11.82,11.83h0A11.86,11.86,0,0,1,1367.38,497Z"/><path class="cls-8" d="M1582.73,1017.34s-6.06-29.28,3.63-37.15,39.05-35.08,44.54-32,14.49,21.58,11.56,32.4-39.94,50-39.94,50Z"/><path class="cls-19" d="M1389.93,1415.14c-3.09,60.15-13.58,146-21.37,232.74H1237c-2.83-23.26-6.94-45.93-11.48-68.06-7.37-35.86-15.85-70.35-21.79-103.72-12-67.17-9.73-119.67.64-160.41,8.89-35,23.78-61.29,40.8-80.79,37.3-42.73,141.16,40.78,141.16,40.78S1393,1355.34,1389.93,1415.14Z"/><path class="cls-20" d="M1330.18,1434.26s0,.43-.09,1.26c-.94,12.34-9.22,113.39-35.22,212.36H1237c-2.83-23.26-6.94-45.93-11.48-68.06,9.86-58,19.23-104.1,19.23-104.1Z"/><path class="cls-19" d="M1337.89,1409.8c-1.42,5.7-4.19,14.72-7.8,25.72-14.84,45.09-43.94,123.45-52.23,143-9.7,22.92-18.85,46.1-27.47,69.33h-144c3-55.85,3.7-171.81,6.39-202.69,10.82-124.14,34.31-136.22,34.31-136.22l57.26,6.72,133.43,15.66S1359.71,1321.88,1337.89,1409.8Z"/><path class="cls-21" d="M1362,738c6.44-52.61-10-136.78-115-123.33s-138.07,116.63-116.9,162.51-30.48,56.94-46.7,106.27c-13.93,42.38-18.78,95-41.32,118.62-72.68,76.14,69.77,193.23,155.65,168.54,156.42-45,176.57-51.69,171-174.59-2.85-63-51.84-87.37-20.73-105.59C1423.17,846.42,1347.41,857,1362,738Z"/><path class="cls-8" d="M1330.21,906.86l-31.14,46.67-62.47-3-28.9-74.77s5.38-1,9.78-45.41c1.08-11.67,2.16-26.3,3.14-44.7a.12.12,0,0,1,0-.18c0-1.52.09-3,.18-4.58l8.08,2.43,70,21.36s-.36,2.33-.81,6.37a157.52,157.52,0,0,0,2.07,44.16C1303.92,873.65,1312.35,893.4,1330.21,906.86Z"/><path class="cls-8" d="M1330.42,873.05c-4,0-72.19-13.88-187.33,15.58,0,0,63.06,288.9,41.63,343.35a575.51,575.51,0,0,0-29.56,102.78l232.39,2.89s-3.25-186.9,7.46-253.05S1330.42,873.05,1330.42,873.05Z"/><path class="cls-22" d="M1581.52,988.18s-74.22,100.7-87.33,99.71c-14.09-1.16-49.45-126.28-76.2-172.42-18.75-32.2-83.34-41.82-87.56-42.42h0l-.21,0,.16.64c-.56,6-5.82,53.73-32.27,58.1-48.77,8-88.07-36.64-99.56-54.62,0,0-56,14.14-72.45,32.88-15.58,17.74,5.73,149.22,10.46,161.83,4.09,10.82,8,21.38,11.32,32,8.91,28,14.35,56.44,11.22,91.46-3.39,38.24-39.12,125.63-31.39,144.24,8.09,19.55,19.35,29.46,44,35.11,17,3.91,40.29,5.79,73.3,7.44,70,3.47,145-5.32,155.24-38.61,4.9-16,3-77.78.42-106.31-3.41-37.51-.12-85.37,3.16-129.36l.47.73a.08.08,0,0,0,.09.08c7.54,11.58,16.25,24,25.13,35.55,13.46,17.32,27.47,32.49,39.4,39.49a32.07,32.07,0,0,0,8.35,3.5c7.9,1.88,23.43,1.88,38.5-6.73a57.75,57.75,0,0,0,7.36-4.94c44-34.91,83.12-144,83.12-144C1610.42,1006.13,1581.52,988.18,1581.52,988.18Z"/><path class="cls-23" d="M1127.7,1339.54c8.09,19.55,19.35,29.46,44,35.11,32.91-6.33,54.62-66.89,65.79-96.7,12.89-34.34-40.12-195.42-58.64-193.81-13.76,1.19-26.9,20.3-27.36,31.8,8.91,28,10.76,44.34,7.63,79.36C1155.7,1233.54,1120,1320.93,1127.7,1339.54Z"/><path class="cls-23" d="M1515.73,1180.43c-15.07,8.61-30.6,8.61-38.5,6.73a32.07,32.07,0,0,1-8.35-3.5c-11.93-7-25.94-22.17-39.4-39.49-8.88-11.58-17.59-24-25.13-35.55,1.71-6.28,7.9-9.24,27.91,11.31,33.66,34.56,39.85,57.72,61.22,59.51C1500.84,1180.07,1508.29,1180.43,1515.73,1180.43Z"/><path class="cls-14" d="M1300.15,855.16c-22.17,6.1-76.3-65.25-79.53-69.56l-.18-.18h.18l8.26-2.15,70,21.36s-.36,2.33-.81,6.37A157.52,157.52,0,0,0,1300.15,855.16Z"/><path class="cls-8" d="M1319.29,810s-93.51,18.78-104.31-39.63-30.14-95.33,29.11-109.79,75,5.68,83.35,24.3S1343.34,803.57,1319.29,810Z"/><path class="cls-21" d="M1328.62,650.08c-46.13-45.46-86.49-18.82-76.46-6.65-16.64-.29-39.46,3.18-55.28,21C1169.23,695.52,1219.72,801,1219.72,801s-6-68,24.76-101.6c14.66-16,22-28.9,25.57-38a65.54,65.54,0,0,0,18.69,10.8c29.75,10.44,46.1,58.31,46.1,58.31C1345.49,708.16,1348.49,669.66,1328.62,650.08Z"/><path class="cls-8" d="M1218.85,1246.53l20.84,10c9.22,2.71,12.83,5.21,18.36,4.6,13.37-1.5,40.36-.66,59,25.41,0,0,9.44,15.47-4,17.06s-8.63-.8-27.44,1.83-37.75-15.12-43.64-21.53l-21.83-8Z"/><path class="cls-22" d="M1198.54,877.14s-55.28,2.18-80.91,26c-29,27-81,190.54-81,293.26,0,0-1,56.58,195.81,94.71,0,0,9.43-7.82,13-15.37,6.27-13.36,6.26-22.55,6.26-22.55s-115.43-65.47-119.59-86.08C1126.6,1139.65,1205.62,1032.54,1198.54,877.14Z"/></g><path class="cls-7" d="M1818.75,878.36s-163-32.53-357.93-29.9l-11.28-53.12-12.38-58.2s203.66-49.4,337.08-143.75Z"/><path class="cls-24" d="M1818.75,878.36h0a24.82,24.82,0,0,0,21.87-29L1796.7,606.06c-2.12-11.79-10.68-15.53-22.46-12.67Z"/><path class="cls-25" d="M1629.51,854.18c111.87,8.74,189.24,24.18,189.24,24.18s-185.44-89.06-369.21-83l11.28,53.12c34.54-.46,68.09.18,99.9,1.54-.06,1-.08,2,0,3l4.81,167.52a34.49,34.49,0,0,0,35.36,33.39h0a34.51,34.51,0,0,0,33.39-35.37Z"/><path class="cls-24" d="M1514.51,848.62l-52.73.41c.77.16-49.17,1.42-57.63-44.54a36,36,0,0,1-1.44-9.85c-3.11-56,27.9-61,27.9-61l70.29-14.75,8.17,78.38-.06.27Z"/><path class="cls-26" d="M1514.51,848.62l-52.73.41c.77.16-49.17,1.42-57.63-44.54,32.59-16.37,104.92-7.22,104.92-7.22l-.06.27Z"/><rect class="cls-17" x="984.77" y="1444.07" width="693.81" height="202.1"/><path class="cls-18" d="M1625.85,1503H1035.19a12,12,0,0,1-12-12h0a12,12,0,0,1,12-11.95h590.66a12,12,0,0,1,12,11.95h0A12,12,0,0,1,1625.85,1503Z"/><path class="cls-18" d="M1625.85,1546.85H1035.19a12,12,0,0,1-12-11.95h0a12,12,0,0,1,12-12h590.66a12,12,0,0,1,12,12h0A12,12,0,0,1,1625.85,1546.85Z"/><path class="cls-18" d="M1625.85,1592.67H1035.19a12,12,0,0,1-12-12h0a12,12,0,0,1,12-12h590.66a12,12,0,0,1,12,12h0A12,12,0,0,1,1625.85,1592.67Z"/><rect class="cls-27" x="2365.8" y="1282.2" width="960" height="544.75" rx="21.34"/><rect class="cls-28" x="2320.82" y="1282.2" width="960" height="544.75" rx="21.34"/><rect class="cls-1" x="2348.34" y="1307.52" width="826.29" height="494.07"/><rect class="cls-27" x="3208.82" y="1493.53" width="43.73" height="122.09" rx="19.83"/><polygon class="cls-29" points="3174.64 1307.52 3174.64 1801.59 2602.86 1801.59 2977.35 1307.52 3174.64 1307.52"/><polygon class="cls-29" points="2876.19 1307.52 2467.37 1801.59 2412.45 1801.59 2830.8 1307.52 2876.19 1307.52"/><polygon class="cls-29" points="2473.01 1307.52 2348.34 1445.12 2348.34 1307.52 2473.01 1307.52"/><path class="cls-30" d="M2773.51,1546.5c0,4.06-2,6.85-5.41,8.72l0,0c-6.29,3.47-17.32,3.81-29.33,3.29-1.54-.06-2.92-.11-4.16-.11h-1l-.74,0c-11.89.29-10.63,3.84-33.22,5.78-25.74,2.2-35.23-5.68-36.75-9.27-1.27-3,9.77-6.5,22.12-10.44.6-.19,1.19-.39,1.8-.57l4.94-1.6c14.69-4.89,29.16-10.69,32.77-25.56,3.83-15.78-7.68-59.81-7.68-59.81l40.8-4.4s3.94,46,6.5,60.37c1.38,7.66,4.85,13.75,6.88,20.3.15.46.28.92.41,1.38A45,45,0,0,1,2773.51,1546.5Z"/><path class="cls-25" d="M2773.51,1546.5c0,4.06-2,6.85-5.41,8.72l0,0c-6.69,3.1-17.55,3.55-29.31,3.22-1.54,0-2.92-.06-4.18,0h-1l-.74,0c-11.89.29-10.63,3.84-33.22,5.78-25.74,2.2-35.23-5.68-36.75-9.27-1.27-3,9.77-6.5,22.12-10.44a76.3,76.3,0,0,0,39.5,3.37c17.18-3.23,34.24-11.78,46.51-14.64.15.46.28.92.41,1.38A45,45,0,0,1,2773.51,1546.5Z"/><path class="cls-30" d="M2508.77,1494.42c-2.27,11.33-18.42,9.44-36.46,5s-13.76.83-39.44-2-33.46-12.42-34.25-16.24c-.7-3.38,12-4.58,25.6-6.15,1.72-.19,3.44-.4,5.15-.61,15.37-1.93,26.63-11.85,40.58-20,13.23-7.72,33-39.14,33-39.14l35.22,2.79s-18.48,28.07-25.63,40.27c-4.21,7.18-4,16.67-3.46,24C2509.31,1486.36,2509.57,1490.43,2508.77,1494.42Z"/><path class="cls-25" d="M2472.31,1499.45c-18-4.41-13.76.83-39.44-2s-33.46-12.42-34.25-16.24c-.7-3.38,12-4.58,25.6-6.15l.13.26a72.44,72.44,0,0,0,36.78,11.44c17.42.42,35.88-4.57,47.91-4.38.27,4,.53,8.06-.27,12.05C2506.5,1505.75,2490.35,1503.86,2472.31,1499.45Z"/><path class="cls-30" d="M2587.14,977.12s-8.39-20.55-17.63-21.39-38.6-5.46-40.69-1.26,0,19.3,6.29,24.75,45.31,14.27,45.31,14.27Z"/><path class="cls-25" d="M2643.74,1269.21l75.91,204.28a69.5,69.5,0,0,0,22.84-2.09c10.28-3,22.07-10.75,22.07-10.75s-18.83-196.14-53.35-236.94S2643.74,1269.21,2643.74,1269.21Z"/><path class="cls-31" d="M2944,1186.57s-218.11-73.75-266.75-58-194.7,306.26-194.7,306.26,3.3,4.39,12.29,7.76c8.37,3.14,28.63,2.94,28.63,2.94s131.81-113,147.5-145.93,22-64.33,37.66-61.19,202.42,76.88,244.78,33,31.29-101,31.29-101Z"/><path class="cls-21" d="M2810.68,843.48c-3.48-7.19-7.38-20-9.28-42.73.29,2.26,4.22,31,15.26,47.24C2862,877.77,2949,977.21,2947.24,996.05c0,0,30.63-51.94,31.15-52.25,0,0,56.49-71.84-10.46-113-34-20.91-33.85-47.75-32.43-71.06s-9.28-123.69-77.45-97.43c0,0-10.94-4.86-15.84-4.13,0,0,4,.77,6,2.87-7.9-.47-19.2.12-28.63,5.47C2794.63,680.73,2772.27,808.13,2810.68,843.48Z"/><path class="cls-30" d="M2819.34,849.47c-.22.1,21.9,11.59,38.55,7,15.66-4.27,25.89-24.57,25.67-24.62-6.63-1.32-8.54-10.43-8.4-49.58l-3,.59-50.4,10s1.15,15.86,1.18,30.8C2823,836.23,2822.22,848.13,2819.34,849.47Z"/><path class="cls-32" d="M2821.76,792.88s1.15,15.86,1.18,30.8c28.21-.79,43.11-26.52,49.22-40.78Z"/><path class="cls-21" d="M2877.37,777.41s14.78-23.35,18.32-43.32c2.54-14.25-4.73-67.1-57.83-59.49a72.17,72.17,0,0,0-29.92,11.31c-11.53,7.79-28.17,24.6-9.56,70.71l4.83,15.58Z"/><path class="cls-30" d="M2812.34,807s66.73,1.1,66.78-40.47,8.68-69.41-33.92-71.87-50.89,13.39-54.28,27.26S2795,805.67,2812.34,807Z"/><path class="cls-21" d="M2814.81,693.67s18.27,48.76,46.31,56,40.2-.3,40.2-.3-21.51-17.08-26-46.91C2875.35,702.43,2828.59,670.46,2814.81,693.67Z"/><path class="cls-21" d="M2819.34,697.63s-13.64,10.89-17,21.47-4.82,32.37-11.17,31.63c0,0-13.77-33.14,1.7-51.89C2809.3,679,2819.34,697.63,2819.34,697.63Z"/><path class="cls-28" d="M2967.93,1029c6.58-27.59-15.81-81.15-39.18-125.48-21.2-40.18-43.21-72.78-45.19-71.61-55.93,33.2-61,5.6-61,5.6s-50.8,6.75-65.18,31.51c-19.9,34.24-41.57,137-62.86,135.47-9.77-.7-108.1-37.66-108.1-37.66s-16.39,15.35-13.25,34.18c0,0,48.55,32.51,89.61,53.26,21.72,11,41.35,18.65,50.57,16.47,18.71-4.4,47.93-47.76,63.71-73.29l.11-.17c20.15,114.06-7.25,140,6.62,152.06,14.65,12.7,35.57-6,81.6,13.9,30.19,13.1,72.09,32,100.29,35.33,14.79,1.74,25.83-.84,29.43-10.83C3005.59,1158.69,2955.38,1081.59,2967.93,1029Z"/><path class="cls-2" d="M2827.18,781.83s-1.25,5.28-14.38,4.47c0,0-11-.68-10.69-6.49C2802.11,779.81,2812.8,775.68,2827.18,781.83Z"/><path class="cls-27" d="M2995.13,1187.72c-3.6,10-14.64,12.57-29.43,10.83-19.52-8.5-103.85-41.17-102.91-63.31,1.41-32.78,16.22-33.82,5.76-74.28-8.4-32.48,69.52-92.88,81.95-106,23.37,44.33,24,46.43,17.43,74C2955.38,1081.59,3005.59,1158.69,2995.13,1187.72Z"/><path class="cls-27" d="M2777.08,997.43c-15.78,25.53-45,68.89-63.71,73.29-9.22,2.18-28.85-5.5-50.57-16.47,15.85,4.09,31.25,4,46.21,2.53,16.22-1.57,20.92-21.45,46.55-51.26C2772.19,986.19,2776.27,991.05,2777.08,997.43Z"/><path class="cls-33" d="M2831.42,1056.4c-2.1-1.3-6.2-.8-9.17-.17v-4.3a21.74,21.74,0,0,0-.18-2.81h-44.52a23.68,23.68,0,0,0-.18,2.81v8.74a22.41,22.41,0,0,0,39.27,14.8h0s10.6-2.6,13.92-6.55S2835,1058.58,2831.42,1056.4Zm-2.35,8.07c-1.12,2.91-6.17,4.47-8.66,5.08a22.5,22.5,0,0,0,1.79-7.39c1.53-2.1,4-3.33,5.74-3C2829.53,1059.44,2830.49,1060.8,2829.07,1064.47Z"/><path class="cls-34" d="M2781,1051.93v8.74a22.51,22.51,0,0,0,22.44,22.44,20.16,20.16,0,0,0,3-.22,22.49,22.49,0,0,1-19.42-22.22v-8.74a21.74,21.74,0,0,1,.18-2.81h-6A21.74,21.74,0,0,0,2781,1051.93Z"/><rect class="cls-33" x="2790.63" y="1081.15" width="18.32" height="2.74"/><path class="cls-30" d="M2855.21,1060.18s-14.12-11-27.46-8.37-19.88,11.77-19.36,16,7.59,16,17.79,17,39.23-6.27,39.23-6.27Z"/><path class="cls-28" d="M2883.56,831.89s54.39,3.35,73.21,29.61c26.5,37,90.11,201.38,60,222.39-33.93,23.66-165.46-.7-165.46-.7s-4-18.74,1.57-27.81,96.24-23.71,100.43-27.89S2901,945.89,2901,933.34,2883.56,831.89,2883.56,831.89Z"/><rect class="cls-1" x="2465.85" y="402.77" width="280.3" height="255.04" rx="68.52"/><polygon class="cls-13" points="2493 476.67 2686.81 459.94 2585.57 525.7 2493 476.67"/><polygon class="cls-12" points="2592.22 629.93 2686.81 459.94 2585.38 525.4 2592.22 629.93"/><path class="cls-12" d="M2577.35,932.91l-33.47-9a3,3,0,0,0-2.86.58H2541l-4.68,2.82,3.74,73.82,32.15,8.62,2.37-.19,5.42-3.32v0a2.85,2.85,0,0,0,1.25-2.47v-66A5.41,5.41,0,0,0,2577.35,932.91Z"/><path class="cls-13" d="M2572.18,1009.77l-33.47-9a5.41,5.41,0,0,1-3.85-4.89v-66a2.86,2.86,0,0,1,3.85-2.82l33.47,9A5.41,5.41,0,0,1,2576,941v66A2.86,2.86,0,0,1,2572.18,1009.77Z"/><path class="cls-12" d="M2547.5,937.38l-7.8-2.33a3,3,0,0,1-2.06-2.77h0a1.58,1.58,0,0,1,2.18-1.5l7.8,2.33a3,3,0,0,1,2.06,2.77h0A1.59,1.59,0,0,1,2547.5,937.38Z"/><path class="cls-1" d="M2715.88,792.78a5.37,5.37,0,1,1,5.37,5.37A5.37,5.37,0,0,1,2715.88,792.78Z"/><path class="cls-1" d="M2658,771.85A10.18,10.18,0,1,1,2668.19,782,10.18,10.18,0,0,1,2658,771.85Z"/><path class="cls-1" d="M2601.48,719.46a16.16,16.16,0,1,1,16.16,16.16A16.15,16.15,0,0,1,2601.48,719.46Z"/><rect class="cls-1" x="1993.13" y="185.93" width="275.78" height="250.94" rx="67.42" transform="translate(4262.03 622.79) rotate(180)"/><path class="cls-13" d="M2197,243.44H2065.08a37.54,37.54,0,0,0-37.43,37.43v32.31a37.43,37.43,0,0,0,33.95,37.08l-15.95,46.38,83.36-46H2197a37.54,37.54,0,0,0,37.43-37.43V280.87A37.54,37.54,0,0,0,2197,243.44Z"/><rect class="cls-12" x="2048.65" y="276.03" width="160.85" height="15.96" rx="7.79"/><rect class="cls-12" x="2048.65" y="301.88" width="160.85" height="15.96" rx="7.79"/><path class="cls-1" d="M2227.08,616.49a5.7,5.7,0,1,0-.22,8.07A5.7,5.7,0,0,0,2227.08,616.49Z"/><path class="cls-1" d="M2256.39,558.12a10.81,10.81,0,1,0-.41,15.28A10.81,10.81,0,0,0,2256.39,558.12Z"/><path class="cls-1" d="M2261.71,476.48a17.16,17.16,0,1,0-.66,24.25A17.17,17.17,0,0,0,2261.71,476.48Z"/><rect class="cls-1" x="431.93" y="327.71" width="341.22" height="310.48" rx="83.41"/><path class="cls-35" d="M693.22,480.41c-9.48,25-90.73,90.58-90.73,90.58s-26.49-21.52-51-44.69c-18.36-17.15-35.51-35.21-39.58-45.89-9.63-24.83.61-60.34,36.12-66.36s54.47,31,54.47,31,19.11-37,54.61-31a48.53,48.53,0,0,1,16.26,5.72C695.47,432.11,701,460,693.22,480.41Z"/><path class="cls-7" d="M693.22,480.41c-9.48,25-90.73,90.58-90.73,90.58s-26.49-21.52-51-44.69C648.23,499.22,669,443.24,673.36,419.77,695.47,432.11,701,460,693.22,480.41Z"/><path class="cls-1" d="M586.66,791.52a5.24,5.24,0,1,0,6.87,2.78A5.25,5.25,0,0,0,586.66,791.52Z"/><path class="cls-1" d="M624.48,748.19a9.93,9.93,0,1,0,13,5.26A9.94,9.94,0,0,0,624.48,748.19Z"/><path class="cls-1" d="M668.28,684.87a15.77,15.77,0,1,0-8.35,20.68A15.77,15.77,0,0,0,668.28,684.87Z"/><path class="cls-8" d="M2335.54,1148l7.72,12.5c4,4.6,5.08,7.17,8.25,8.74,7.66,3.77,21.82,13.45,22.89,33.77,0,0-.25,11.51-8,7.78s-4.34-3.38-15.31-8.4-15-21-16-26.45l-8.94-11.75Z"/><path class="cls-8" d="M1847,964.83s-8.19-20-17.19-20.86-37.63-5.32-39.68-1.23,0,18.82,6.14,24.14,44.18,13.91,44.18,13.91Z"/><path class="cls-8" d="M2107.63,1801c.77,4.37,1.53,8.85,1.11,13.35s-7,8.85-7.07,8.85c-4.29,1.87-10.14,2.12-17.05,1.87-2-.07-4.17-.14-6.33-.33-3-.26-6.16-.13-9.38-.56-1.7-.22-3.23-.4-4.6-.52l-1.07-.09-.82-.06c-7.82-.51-10.65.69-16.89,1.74h-36.94c-16.31-2.82-22.45-9.41-23.48-12.63-1.11-3.51,11.5-6.22,25.6-9.34l2-.46c1.88-.41,3.77-.85,5.64-1.28,16.81-3.93,33.45-8.9,38.95-25,5.84-17.08,4.46-67.8,4.46-67.8h51s-13.39,56-12,72.17c.76,8.63,4.89,11.08,6.48,18.54C2107.43,1800,2107.53,1800.49,2107.63,1801Z"/><path class="cls-9" d="M2168.09,1265.34c-4.3,24.17-10.45,49.14-15.78,75.11-8.57,41.76-15,86.12-8.42,133.89a165.56,165.56,0,0,1,1.41,20.23c1.29,84.43-36.44,237.43-36.44,237.43s-10.24,4.42-27.41,3.57c-8.85-.43-22.41-6.13-22.41-6.13s-3.57-94.87-3.79-222.45c-.15-92.47-18.31-214.23-22-285.78-2.22-43.3,2.6-101,2.6-101s75.2-60.47,102.21-29.53C2164.76,1121.26,2184.2,1175,2168.09,1265.34Z"/><path class="cls-10" d="M2143.89,1474.34a165.56,165.56,0,0,1,1.41,20.23c-56.31-81.6-68.77-259.52-68.77-259.52l61.86,30s6.78,33.36,13.92,75.38C2143.74,1382.21,2137.27,1426.57,2143.89,1474.34Z"/><path class="cls-8" d="M2271.44,1814c-.42,4.49-2.92,7.38-6.88,9.1l-.06,0a28.84,28.84,0,0,1-8.9,2,75.43,75.43,0,0,1-11.26,0c-4-.25-8.33-.73-12.73-1.32-1.7-.22-3.23-.4-4.6-.52l-1.07-.09c-.28,0-.56,0-.83-.06-8.44-.56-11.07.89-18.44,2h-33.84c-17.46-2.65-24-9.53-25-12.85-1.12-3.49,11.49-6.2,25.59-9.31l2.06-.46c1.87-.41,3.76-.84,5.64-1.27,16.81-3.92,33.45-8.87,39-24.94,5.84-17-2.5-66.81-2.5-66.81l47.25-3.93s-2.93,56.72-1.53,72.82c.76,8.59,5.15,13.32,6.74,20.76.12.53.22,1,.31,1.56C2271.1,1805.07,2271.86,1809.54,2271.44,1814Z"/><path class="cls-9" d="M2264.78,1736.32s-12.15,5.75-20.89,7.5-26.91-1.67-26.91-1.67c-3.28-36.74-10.9-94.18-25.69-159-16.85-73.8-41.92-161-76.87-243.61-7.46-17.64-38.25-101.13-43.47-122.2-15.8-63.66.06-56.8.06-56.8l138.08-16.2s17,8.74,24.84,98.64c2.35,26.92,2.63,143.16,6.17,165.2,3.34,20.87,7.26,38.22,11.85,49.49C2277.6,1520.62,2264.78,1736.32,2264.78,1736.32Z"/><path class="cls-36" d="M2271.44,1814.38c-.42,4.5-2.92,7.4-6.88,9.13l-.06,0c-3.88,1.37-8.85,1.92-14.49,1.92a160.16,160.16,0,0,1-18.37-1.31c-1.7-.2-3.24-.35-4.63-.45l-1.07-.09c-.28,0-.56,0-.83-.06-8.25-.54-11,.84-18,1.91h-34.83c-17.07-2.71-23.46-9.51-24.51-12.8-1.12-3.51,11.49-6.22,25.59-9.35a85.1,85.1,0,0,0,43.51,7.7c19.39-1.85,39.19-9.6,53.1-11.54.12.53.22,1,.31,1.57C2271.1,1805.4,2271.86,1809.88,2271.44,1814.38Z"/><path class="cls-36" d="M2108.74,1814.36c-.42,4.51-2.92,7.4-6.88,9.13l-.06,0c-3.88,1.37-8.85,1.92-14.49,1.92a158.06,158.06,0,0,1-18.37-1.32c-1.7-.2-3.23-.35-4.63-.44l-1.07-.09-.82-.06c-8.25-.54-11,.83-18,1.91h-34.82c-17.08-2.71-23.47-9.51-24.52-12.8-1.11-3.51,11.5-6.22,25.6-9.34a85.18,85.18,0,0,0,43.5,7.69c19.39-1.85,39.19-9.6,53.1-11.54.12.53.22,1,.32,1.57C2108.4,1805.38,2109.16,1809.86,2108.74,1814.36Z"/><path class="cls-31" d="M2053.51,730.89c-4.67-38.09,7.23-99,83.25-89.3s100,84.45,84.64,117.67,22.07,41.23,33.82,77c10.08,30.69,13.6,68.79,29.92,85.89,52.63,55.13-50.52,139.92-112.71,122-113.26-32.57-127.85-37.43-123.83-126.42,2.06-45.6,37.53-63.26,15-76.46C2009.2,809.39,2064.06,817.07,2053.51,730.89Z"/><path class="cls-8" d="M2165.25,830.58,2144.3,884.7l-45.2,2.21-22.55-33.68c14.24-10.82,20.25-27.06,22.45-41.59a117.79,117.79,0,0,0,.8-27.86c-.3-2.91-.6-4.61-.6-4.61L2155.53,762l.2-.1c.7,14.94,1.5,26.66,2.4,35.78C2161.34,829.88,2165.25,830.58,2165.25,830.58Z"/><path class="cls-8" d="M2076.36,828.68c2.91,0,52.27-10,135.65,11.28,0,0-45.66,209.19-30.15,248.62a416.39,416.39,0,0,1,21.4,74.42L2035,1165.09s2.36-135.33-5.4-183.23S2076.36,828.68,2076.36,828.68Z"/><path class="cls-13" d="M2208.54,995.79c2.44-7.68,5.24-15.33,8.2-23.16,3.43-9.13,18.85-104.33,7.58-117.18-11.91-13.57-52.47-23.81-52.47-23.81-8.31,13-36.77,45.38-72.09,39.55-19.05-3.14-22.92-37.38-23.36-42l.13-.52-.17,0v0l-.41.08c-5.56.82-49.84,8-63,30.64-19.4,33.39-40.52,133.58-61.28,132.1-9.53-.68-105.42-36.72-105.42-36.72s-16,15-12.91,33.32c0,0,47.34,31.71,87.38,51.93,5.55,2.81,11,5.39,16.07,7.63,14.44,6.34,26.6,10,33.24,8.44a22.58,22.58,0,0,0,6-2.53c8.68-5,18.82-16,28.54-28.59,6.45-8.36,12.73-17.38,18.27-25.79l.34-.53c2.38,31.85,4.76,66.51,2.29,93.67-1.87,20.67-3.24,65.42.3,77,7.4,24.1,61.72,30.47,112.42,28,23.9-1.19,40.78-2.55,53.07-5.39,17.83-4.09,26-11.26,31.84-25.41,5.6-13.48-20.27-76.76-22.73-104.45C2198.15,1036.66,2202.09,1016.07,2208.54,995.79Z"/><path class="cls-13" d="M2171.86,831.64s40,1.58,58.58,18.85c21,19.53,52.23,139,60.65,197.1,0,0,42.36,80.73,55.85,112.75a25.64,25.64,0,0,1-7.58,7.68,36.77,36.77,0,0,1-11.08,4.47s-76.41-85.29-81.43-98.77S2166.72,944.17,2171.86,831.64Z"/><path class="cls-24" d="M2223.15,1166.47c-5.86,14.15-14,21.32-31.84,25.41-23.83-4.58-39.55-48.43-47.64-70-9.33-24.87,39.26-152.74,52.66-151.58,10,.87,11.89,17.18,12.21,25.5-6.45,20.28-10.39,40.87-8.12,66.23C2202.88,1089.71,2228.75,1153,2223.15,1166.47Z"/><path class="cls-24" d="M2022.89,999.19c-5.54,8.41-11.82,17.43-18.27,25.79-9.26,11.4-19.5,22.43-28.54,28.59a22.58,22.58,0,0,1-6,2.53c-6.64,1.57-18.8-2.1-33.24-8.44a159.25,159.25,0,0,0,25.32-.37c14.53-1.24,18.75-17,41.71-40.55C2017.57,992.64,2021.74,994.82,2022.89,999.19Z"/><path class="cls-14" d="M2155.53,762c-8.52,13.93-29.07,42.6-56.53,49.61a117.79,117.79,0,0,0,.8-27.86c-.3-2.91-.6-4.61-.6-4.61Z"/><path class="cls-8" d="M2084.42,783s67.71,13.6,75.53-28.7,21.82-69-21.08-79.5-54.31,4.11-60.35,17.6S2067,778.37,2084.42,783Z"/><path class="cls-31" d="M2173.06,677.6c-11.46-12.89-28-15.39-40-15.19,7.26-8.8-21.95-28.1-55.35,4.81-14.39,14.19-12.22,42.06-4.51,58.24,0,0,11.84-34.66,33.38-42.22a47.17,47.17,0,0,0,13.53-7.83c2.63,6.59,7.9,15.92,18.52,27.52,22.27,24.34,17.93,73.57,17.93,73.57S2193.08,700.13,2173.06,677.6Z"/><path class="cls-2" d="M2105.51,762.19s-1.81,5-14.56,2.74c0,0-10.7-1.91-9.71-7.55C2081.24,757.38,2092.15,754.56,2105.51,762.19Z"/><rect class="cls-37" x="191.04" y="1825.42" width="3231.26" height="5.64" rx="2.69"/></svg>