<svg id="Layer_1" data-name="Layer 1" xmlns="http://www.w3.org/2000/svg" viewBox="0 0 60 60"><defs><style>.cls-1{fill:#6b00ff;}</style></defs><path class="cls-1" d="M8,6V16h2V6a2,2,0,0,1,2-2H52a2,2,0,0,1,2,2h2a4,4,0,0,0-4-4H12A4,4,0,0,0,8,6Z" transform="translate(-2 -2)"/><path class="cls-1" d="M6,62H52a4,4,0,0,0,4-4V54H54v4a2,2,0,0,1-4,0V55a1,1,0,0,0-1-1H10V34H8V54H3a1,1,0,0,0-1,1v3A4,4,0,0,0,6,62ZM4,56H48v2a3.93,3.93,0,0,0,.54,2H6a2,2,0,0,1-2-2Z" transform="translate(-2 -2)"/><path class="cls-1" d="M3,32H23a1,1,0,0,0,1-1V19a1,1,0,0,0-1-1H3a1,1,0,0,0-1,1V31A1,1,0,0,0,3,32ZM4,20H22V30H4Z" transform="translate(-2 -2)"/><path class="cls-1" d="M8.29,22.29l-2,2a1,1,0,0,0,0,1.42l2,2,1.42-1.42L8.41,25l1.3-1.29Z" transform="translate(-2 -2)"/><path class="cls-1" d="M17.71,22.29l-1.42,1.42L17.59,25l-1.3,1.29,1.42,1.42,2-2a1,1,0,0,0,0-1.42Z" transform="translate(-2 -2)"/><rect class="cls-1" x="9.84" y="24" width="6.32" height="2" transform="translate(-16.83 27.42) rotate(-71.56)"/><path class="cls-1" d="M61,8H27a1,1,0,0,0-1,1V29a1,1,0,0,0,1,1H61a1,1,0,0,0,1-1V9A1,1,0,0,0,61,8ZM60,28H28V25.57l9-5.39,8.76,5.66a1,1,0,0,0,1,.05L54,22.14l6,3.44Zm0-4.72-5.5-3.15a1,1,0,0,0-1,0l-7.2,3.73-8.79-5.68a1,1,0,0,0-1.06,0L28,23.23V10H60Z" transform="translate(-2 -2)"/><path class="cls-1" d="M49.5,19A3.5,3.5,0,1,0,46,15.5,3.5,3.5,0,0,0,49.5,19Zm0-5A1.5,1.5,0,1,1,48,15.5,1.5,1.5,0,0,1,49.5,14Z" transform="translate(-2 -2)"/><path class="cls-1" d="M12,35V47a1,1,0,0,0,1,1H38a1,1,0,0,0,1-1V35a1,1,0,0,0-1-1H13A1,1,0,0,0,12,35Zm2,1H37V46H14Z" transform="translate(-2 -2)"/><rect class="cls-1" x="14" y="36" width="4" height="2"/><rect class="cls-1" x="20" y="36" width="9" height="2"/><rect class="cls-1" x="31" y="36" width="2" height="2"/><rect class="cls-1" x="14" y="40" width="12" height="2"/><rect class="cls-1" x="28" y="40" width="5" height="2"/><rect class="cls-1" x="10" y="4" width="2" height="2"/><rect class="cls-1" x="14" y="4" width="2" height="2"/><rect class="cls-1" x="18" y="4" width="2" height="2"/><rect class="cls-1" x="10" y="8" width="12" height="2"/><path class="cls-1" d="M61,38H42a1,1,0,0,0-1,1V51a1,1,0,0,0,1,1H61a1,1,0,0,0,1-1V39A1,1,0,0,0,61,38ZM60,50H43V40H60Z" transform="translate(-2 -2)"/><rect class="cls-1" x="43" y="40" width="2" height="2"/><rect class="cls-1" x="43" y="44" width="2" height="2"/><rect class="cls-1" x="47" y="40" width="9" height="2"/><rect class="cls-1" x="47" y="44" width="9" height="2"/><rect class="cls-1" x="52" y="30" width="2" height="4"/></svg>