<svg xmlns="http://www.w3.org/2000/svg" viewBox="0 0 64 80" x="0px" y="0px"><g><path d="M8,6V16h2V6a2,2,0,0,1,2-2H52a2,2,0,0,1,2,2h2a4,4,0,0,0-4-4H12A4,4,0,0,0,8,6Z"/><path d="M6,62H52a4,4,0,0,0,4-4V54H54v4a2,2,0,0,1-4,0V55a1,1,0,0,0-1-1H10V34H8V54H3a1,1,0,0,0-1,1v3A4,4,0,0,0,6,62ZM4,56H48v2a3.97,3.97,0,0,0,.537,2H6a2,2,0,0,1-2-2Z"/><path d="M3,32H23a1,1,0,0,0,1-1V19a1,1,0,0,0-1-1H3a1,1,0,0,0-1,1V31A1,1,0,0,0,3,32ZM4,20H22V30H4Z"/><path d="M8.293,22.293l-2,2a1,1,0,0,0,0,1.414l2,2,1.414-1.414L8.414,25l1.293-1.293Z"/><path d="M17.707,22.293l-1.414,1.414L17.586,25l-1.293,1.293,1.414,1.414,2-2a1,1,0,0,0,0-1.414Z"/><rect x="9.838" y="24" width="6.325" height="2" transform="translate(-14.829 29.423) rotate(-71.556)"/><path d="M61,8H27a1,1,0,0,0-1,1V29a1,1,0,0,0,1,1H61a1,1,0,0,0,1-1V9A1,1,0,0,0,61,8ZM60,28H28V25.566l8.98-5.388,8.755,5.662a1,1,0,0,0,1,.048l7.239-3.75L60,25.58Zm0-4.723-5.5-3.145a1,1,0,0,0-.956-.02l-7.207,3.733-8.79-5.685a1,1,0,0,0-1.058-.017L28,23.234V10H60Z"/><path d="M49.5,19A3.5,3.5,0,1,0,46,15.5,3.5,3.5,0,0,0,49.5,19Zm0-5A1.5,1.5,0,1,1,48,15.5,1.5,1.5,0,0,1,49.5,14Z"/><path d="M12,35V47a1,1,0,0,0,1,1H38a1,1,0,0,0,1-1V35a1,1,0,0,0-1-1H13A1,1,0,0,0,12,35Zm2,1H37V46H14Z"/><rect x="16" y="38" width="4" height="2"/><rect x="22" y="38" width="9" height="2"/><rect x="33" y="38" width="2" height="2"/><rect x="16" y="42" width="12" height="2"/><rect x="30" y="42" width="5" height="2"/><rect x="12" y="6" width="2" height="2"/><rect x="16" y="6" width="2" height="2"/><rect x="20" y="6" width="2" height="2"/><rect x="12" y="10" width="12" height="2"/><path d="M61,38H42a1,1,0,0,0-1,1V51a1,1,0,0,0,1,1H61a1,1,0,0,0,1-1V39A1,1,0,0,0,61,38ZM60,50H43V40H60Z"/><rect x="45" y="42" width="2" height="2"/><rect x="45" y="46" width="2" height="2"/><rect x="49" y="42" width="9" height="2"/><rect x="49" y="46" width="9" height="2"/><rect x="54" y="32" width="2" height="4"/></g><text x="0" y="79" fill="#000000" font-size="5px" font-weight="bold" font-family="'Helvetica Neue', Helvetica, Arial-Unicode, Arial, Sans-serif">Created by monkik</text><text x="0" y="84" fill="#000000" font-size="5px" font-weight="bold" font-family="'Helvetica Neue', Helvetica, Arial-Unicode, Arial, Sans-serif">from the Noun Project</text></svg>