<svg id="Layer_1" data-name="Layer 1" xmlns="http://www.w3.org/2000/svg" viewBox="0 0 64.35 90.1"><defs><style>.cls-1{fill:#fff;}</style></defs><path class="cls-1" d="M48.4,5a1.16,1.16,0,0,0-1.2,1.2V17.7a1.16,1.16,0,0,0,1.2,1.2h2.8a1.16,1.16,0,0,0,1.2-1.2V6.2A1.16,1.16,0,0,0,51.2,5Z" transform="translate(-17.82 -5)"/><path class="cls-1" d="M30,24.5a1.15,1.15,0,0,0,0-1.7l-8.1-8.1a1.15,1.15,0,0,0-1.7,0l-2,2a1.15,1.15,0,0,0,0,1.7l8.1,8.1a1.15,1.15,0,0,0,1.7,0Z" transform="translate(-17.82 -5)"/><path class="cls-1" d="M79.8,14.8a1.15,1.15,0,0,0-1.7,0L70,22.9a1.15,1.15,0,0,0,0,1.7l2,2a1.15,1.15,0,0,0,1.7,0l8.1-8.1a1.15,1.15,0,0,0,0-1.7Z" transform="translate(-17.82 -5)"/><path class="cls-1" d="M47.3,25.7A22,22,0,0,0,32.6,61.2a40.35,40.35,0,0,1,8.1,16.3l.4,1.7a2.77,2.77,0,0,0,2.7,2.2H56a2.77,2.77,0,0,0,2.7-2.2l.3-1.6a38,38,0,0,1,8-16.2,21.72,21.72,0,0,0,4.9-13.8A22.07,22.07,0,0,0,47.3,25.7ZM45.9,38.4a10.5,10.5,0,0,0-6.2,8v.9a.65.65,0,0,1-.6.6H36.3a.65.65,0,0,1-.6-.6V46c.6-5,4.5-10,9.1-11.6a.68.68,0,0,1,.8.4l.7,2.7C46.4,38,46.2,38.3,45.9,38.4Z" transform="translate(-17.82 -5)"/><path class="cls-1" d="M58.2,86.1H41.5a.79.79,0,0,0-.8.8v.9a2.65,2.65,0,0,0,2.6,2.6h1.9a4.7,4.7,0,0,0,9.4,0h1.9a2.65,2.65,0,0,0,2.6-2.6v-.9A1,1,0,0,0,58.2,86.1Z" transform="translate(-17.82 -5)"/></svg>