<svg xmlns="http://www.w3.org/2000/svg" viewBox="0 0 64 80" x="0px" y="0px"><title>Artboard 42</title><g data-name="Layer 61"><path d="M59,10H54V5a1,1,0,0,0-1-1H25a1,1,0,0,0-1,1v5H5a1,1,0,0,0-1,1V44a1,1,0,0,0,1,1H59a1,1,0,0,0,1-1V11A1,1,0,0,0,59,10ZM26,6H52V19H37.73a1,1,0,0,0-.51.14L30,23.45V20a1,1,0,0,0-1-1H26ZM58,43H6V12H24v8a1,1,0,0,0,1,1h3v4.21a1,1,0,0,0,.51.87,1,1,0,0,0,.49.13,1,1,0,0,0,.51-.14L38,21H53a1,1,0,0,0,1-1V12h4Zm1,4H42a1,1,0,0,0-1,1v4H23V48a1,1,0,0,0-1-1H5a1,1,0,0,0-.77.36,1,1,0,0,0-.21.82l1.7,9.36a3,3,0,0,0,3,2.46H55.33a3,3,0,0,0,3-2.46L60,48.18a1,1,0,0,0-.21-.82A1,1,0,0,0,59,47ZM56.32,57.18a1,1,0,0,1-1,.82H8.67a1,1,0,0,1-1-.82L6.2,49H21v4a1,1,0,0,0,1,1H42a1,1,0,0,0,1-1V49H57.8ZM39.83,14.41a.84.84,0,0,0,.26-.64.93.93,0,0,0-.23-.66,2.1,2.1,0,0,0-.78-.45,8.05,8.05,0,0,1-.95-.42,2.7,2.7,0,0,1-.69-.47,1.87,1.87,0,0,1-.45-.62,2.24,2.24,0,0,1-.16-.86,1.91,1.91,0,0,1,.55-1.4,2.34,2.34,0,0,1,1.45-.64V7.17h.81v1.1A2.12,2.12,0,0,1,41.05,9a2.52,2.52,0,0,1,.5,1.61H40.09a1.39,1.39,0,0,0-.25-.91.93.93,0,0,0-1.31-.06.85.85,0,0,0-.23.65.87.87,0,0,0,.22.62,2.48,2.48,0,0,0,.83.47,9.65,9.65,0,0,1,1,.46,2.83,2.83,0,0,1,.66.49,1.77,1.77,0,0,1,.41.61,2,2,0,0,1,.14.81,1.93,1.93,0,0,1-.53,1.4,2.32,2.32,0,0,1-1.48.63v1h-.81v-1a2.41,2.41,0,0,1-1.6-.74,2.37,2.37,0,0,1-.57-1.66H38a1.29,1.29,0,0,0,.29.92,1,1,0,0,0,.82.32A1,1,0,0,0,39.83,14.41ZM37,24a1,1,0,0,0-1,1V36a1,1,0,0,0,1,1H47.37l5,3.9a1,1,0,0,0,1,.11,1,1,0,0,0,.56-.9V37h1a1,1,0,0,0,1-1V25a1,1,0,0,0-1-1ZM54,35H53a1,1,0,0,0-1,1v2.07l-3.68-2.86a1,1,0,0,0-.61-.21H38V26H54ZM40,28a1,1,0,0,1,1-1H51a1,1,0,0,1,0,2H41A1,1,0,0,1,40,28Zm0,4a1,1,0,0,1,1-1H51a1,1,0,0,1,0,2H41A1,1,0,0,1,40,32ZM21,23.5A4.5,4.5,0,1,0,16.5,28,4.51,4.51,0,0,0,21,23.5ZM16.5,26A2.5,2.5,0,1,1,19,23.5,2.5,2.5,0,0,1,16.5,26Zm0,2A8.51,8.51,0,0,0,8,36.5V38a1,1,0,0,0,1,1H24a1,1,0,0,0,1-1V36.5A8.51,8.51,0,0,0,16.5,28ZM23,37H10v-.5a6.5,6.5,0,0,1,13,0Z"/></g><text x="0" y="79" fill="#000000" font-size="5px" font-weight="bold" font-family="'Helvetica Neue', Helvetica, Arial-Unicode, Arial, Sans-serif">Created by Jejen Juliansyah Nur Agung</text><text x="0" y="84" fill="#000000" font-size="5px" font-weight="bold" font-family="'Helvetica Neue', Helvetica, Arial-Unicode, Arial, Sans-serif">from the Noun Project</text></svg>