<svg id="Layer_1" data-name="Layer 1" xmlns="http://www.w3.org/2000/svg" viewBox="0 0 56.02 56"><defs><style>.cls-1{fill:#6b00ff;}</style></defs><path class="cls-1" d="M59,10H54V5a1,1,0,0,0-1-1H25a1,1,0,0,0-1,1v5H5a1,1,0,0,0-1,1V44a1,1,0,0,0,1,1H59a1,1,0,0,0,1-1V11A1,1,0,0,0,59,10ZM26,6H52V19H37.73a1,1,0,0,0-.51.14L30,23.45V20a1,1,0,0,0-1-1H26ZM58,43H6V12H24v8a1,1,0,0,0,1,1h3v4.21a1,1,0,0,0,.51.87,1.05,1.05,0,0,0,.49.13,1,1,0,0,0,.51-.14L38,21H53a1,1,0,0,0,1-1V12h4Zm1,4H42a1,1,0,0,0-1,1v4H23V48a1,1,0,0,0-1-1H5a1,1,0,0,0-.77.36,1,1,0,0,0-.21.82l1.7,9.36a3,3,0,0,0,3,2.46H55.33a3,3,0,0,0,3-2.46L60,48.18a1,1,0,0,0-.21-.82A1,1,0,0,0,59,47ZM56.32,57.18a1,1,0,0,1-1,.82H8.67a1,1,0,0,1-1-.82L6.2,49H21v4a1,1,0,0,0,1,1H42a1,1,0,0,0,1-1V49H57.8ZM39.83,14.41a.86.86,0,0,0,.26-.64.94.94,0,0,0-.23-.66,2.1,2.1,0,0,0-.78-.45,8.06,8.06,0,0,1-.95-.42,2.72,2.72,0,0,1-.69-.47,1.87,1.87,0,0,1-.45-.62,2.3,2.3,0,0,1-.16-.86,1.88,1.88,0,0,1,.55-1.4,2.32,2.32,0,0,1,1.45-.64V7.17h.81v1.1A2.1,2.1,0,0,1,41.05,9a2.51,2.51,0,0,1,.5,1.61H40.09a1.34,1.34,0,0,0-.25-.91.93.93,0,0,0-1.31-.06.82.82,0,0,0-.23.65.88.88,0,0,0,.22.62,2.44,2.44,0,0,0,.83.47,9,9,0,0,1,1,.46,2.9,2.9,0,0,1,.66.49,1.69,1.69,0,0,1,.41.61,2,2,0,0,1,.14.81,1.92,1.92,0,0,1-.53,1.4,2.34,2.34,0,0,1-1.48.63v1h-.81v-1a2.42,2.42,0,0,1-1.6-.74,2.34,2.34,0,0,1-.57-1.66H38a1.29,1.29,0,0,0,.29.92,1.27,1.27,0,0,0,1.54.11ZM37,24a1,1,0,0,0-1,1V36a1,1,0,0,0,1,1H47.37l5,3.9a1,1,0,0,0,1,.11,1,1,0,0,0,.56-.9V37h1a1,1,0,0,0,1-1V25a1,1,0,0,0-1-1ZM54,35H53a1,1,0,0,0-1,1v2.07l-3.68-2.86a1,1,0,0,0-.61-.21H38V26H54ZM40,28a1,1,0,0,1,1-1H51a1,1,0,0,1,0,2H41A1,1,0,0,1,40,28Zm0,4a1,1,0,0,1,1-1H51a1,1,0,0,1,0,2H41A1,1,0,0,1,40,32ZM21,23.5A4.5,4.5,0,1,0,16.5,28h0A4.52,4.52,0,0,0,21,23.5ZM16.5,26A2.5,2.5,0,1,1,19,23.5,2.5,2.5,0,0,1,16.5,26Zm0,2A8.52,8.52,0,0,0,8,36.5V38a1,1,0,0,0,1,1H24a1,1,0,0,0,1-1V36.5A8.52,8.52,0,0,0,16.5,28ZM23,37H10v-.5a6.5,6.5,0,0,1,13,0h0Z" transform="translate(-4 -4)"/></svg>