<svg xmlns="http://www.w3.org/2000/svg" data-name="Layer 1" viewBox="0 0 128 160" x="0px" y="0px"><title>Miscellaneous 71 final</title><path d="M118,12H10A10.0113,10.0113,0,0,0,0,22V96a10.0113,10.0113,0,0,0,10,10H49v6H42a2,2,0,0,0,0,4H86a2,2,0,0,0,0-4H79v-6h39a10.0113,10.0113,0,0,0,10-10V22A10.0113,10.0113,0,0,0,118,12ZM75,112H53v-6H75Zm43-10H10a5.997,5.997,0,0,1-5.65125-4H123.65125A5.997,5.997,0,0,1,118,102Zm6-8H4V22a6,6,0,0,1,6-6H118a6,6,0,0,1,6,6Z"/><path d="M85.33838,84.9718A8.94385,8.94385,0,0,1,84.5105,84H29a1,1,0,0,1-1-1V40h72v8.031c.21765-.01587.43555-.031.65625-.031h1.64746A8.92844,8.92844,0,0,1,104,48.16223V25a5.00565,5.00565,0,0,0-5-5H29a5.00569,5.00569,0,0,0-5,5V83a5.00573,5.00573,0,0,0,5,5H89.23718a8.79893,8.79893,0,0,1-2.72949-1.85986ZM28,25a1,1,0,0,1,1-1H99a1,1,0,0,1,1,1V36H28Z"/><path d="M117.584,65.34528a16.74885,16.74885,0,0,0-1.42542-3.44086,4.8184,4.8184,0,0,0-1.36829-4.05l-1.16467-1.16467a4.79211,4.79211,0,0,0-3.41077-1.41278,4.89821,4.89821,0,0,0-.64331.0423,16.74638,16.74638,0,0,0-3.43677-1.42322A4.81887,4.81887,0,0,0,102.30353,52h-1.647a4.81866,4.81866,0,0,0-3.83118,1.896,16.74267,16.74267,0,0,0-3.43683,1.42322,4.8996,4.8996,0,0,0-.64331-.0423,4.79211,4.79211,0,0,0-3.41077,1.41278l-1.16467,1.16467a4.81865,4.81865,0,0,0-1.36829,4.05A16.74547,16.74547,0,0,0,85.376,65.34528,4.81854,4.81854,0,0,0,83.48,69.17645v1.647A4.81866,4.81866,0,0,0,85.376,74.65472a16.74759,16.74759,0,0,0,1.42548,3.44092,4.81876,4.81876,0,0,0,1.36816,4.04987l1.16479,1.16479A4.79206,4.79206,0,0,0,92.74518,84.723a4.8996,4.8996,0,0,0,.64331-.04224,16.74357,16.74357,0,0,0,3.43677,1.42322A4.81875,4.81875,0,0,0,100.65649,88h1.647a4.81875,4.81875,0,0,0,3.83124-1.89606,16.74638,16.74638,0,0,0,3.43677-1.42322,4.89821,4.89821,0,0,0,.64331.04224,4.79191,4.79191,0,0,0,3.41064-1.4126l1.16473-1.16473a4.81856,4.81856,0,0,0,1.36835-4.05017,16.74784,16.74784,0,0,0,1.42542-3.44073,4.81878,4.81878,0,0,0,1.896-3.83124v-1.647A4.81866,4.81866,0,0,0,117.584,65.34528Zm-2.104,5.47821a.82353.82353,0,0,1-.82349.82355h-.52112a12.69734,12.69734,0,0,1-2.54193,6.13708l.36841.36835a.82359.82359,0,0,1,0,1.16467l-1.16467,1.16467a.8237.8237,0,0,1-1.16467,0l-.36835-.36841a12.69666,12.69666,0,0,1-6.13709,2.54193v.52112A.82355.82355,0,0,1,102.30353,84h-1.647a.82355.82355,0,0,1-.82355-.82355v-.52112a12.69617,12.69617,0,0,1-6.13708-2.54193l-.36841.36841a.82362.82362,0,0,1-1.16461,0l-1.16467-1.16467a.82359.82359,0,0,1,0-1.16467l.36841-.36835A12.69617,12.69617,0,0,1,88.82465,71.647h-.52112a.82355.82355,0,0,1-.82355-.82355v-1.647a.82355.82355,0,0,1,.82355-.82355h.52112a12.69666,12.69666,0,0,1,2.54193-6.13708l-.36841-.36835a.82359.82359,0,0,1,0-1.16467l1.16467-1.16467a.82348.82348,0,0,1,1.16461,0l.36841.36841a12.69676,12.69676,0,0,1,6.13708-2.54193v-.52112A.82349.82349,0,0,1,100.65649,56h1.647a.82349.82349,0,0,1,.82355.82349v.52112a12.69725,12.69725,0,0,1,6.13709,2.54193l.36835-.36841a.82355.82355,0,0,1,1.16467,0l1.16467,1.16467a.82359.82359,0,0,1,0,1.16467l-.36841.36835a12.69725,12.69725,0,0,1,2.54193,6.13708h.52112a.82353.82353,0,0,1,.82349.82355Z"/><path d="M101.48,62a8,8,0,1,0,8,8A8.009,8.009,0,0,0,101.48,62Zm0,12a4,4,0,1,1,4-4A4,4,0,0,1,101.48,74Z"/><path d="M94,28H90a2,2,0,0,0,0,4h4a2,2,0,0,0,0-4Z"/><path d="M82,28H78a2,2,0,0,0,0,4h4a2,2,0,0,0,0-4Z"/><path d="M42,52H38a4,4,0,0,0-4,4V72a2,2,0,0,0,0,4H78a2,2,0,0,0,0-4V48a4,4,0,0,0-4-4H70a4,4,0,0,0-4,4V72H62V52a4,4,0,0,0-4-4H54a4,4,0,0,0-4,4V72H46V56A4,4,0,0,0,42,52Zm0,20H38V56h4ZM70,48h4V72H70ZM54,52h4V72H54Z"/><text x="0" y="143" fill="#000000" font-size="5px" font-weight="bold" font-family="'Helvetica Neue', Helvetica, Arial-Unicode, Arial, Sans-serif">Created by priyanka</text><text x="0" y="148" fill="#000000" font-size="5px" font-weight="bold" font-family="'Helvetica Neue', Helvetica, Arial-Unicode, Arial, Sans-serif">from the Noun Project</text></svg>