<svg id="Layer_1" data-name="Layer 1" xmlns="http://www.w3.org/2000/svg" viewBox="0 0 128 104"><defs><style>.cls-1{fill:#6b00ff;}</style></defs><path class="cls-1" d="M118,12H10A10,10,0,0,0,0,22V96a10,10,0,0,0,10,10H49v6H42a2,2,0,0,0,0,4H86a2,2,0,0,0,0-4H79v-6h39a10,10,0,0,0,10-10V22A10,10,0,0,0,118,12ZM75,112H53v-6H75Zm43-10H10a6,6,0,0,1-5.65-4h119.3A6,6,0,0,1,118,102Zm6-8H4V22a6,6,0,0,1,6-6H118a6,6,0,0,1,6,6Z" transform="translate(0 -12)"/><path class="cls-1" d="M85.34,85a8.5,8.5,0,0,1-.83-1H29a1,1,0,0,1-1-1V40h72v8l.66,0h1.64a8.82,8.82,0,0,1,1.7.16V25a5,5,0,0,0-5-5H29a5,5,0,0,0-5,5V83a5,5,0,0,0,5,5H89.24a8.65,8.65,0,0,1-2.73-1.86ZM28,25a1,1,0,0,1,1-1H99a1,1,0,0,1,1,1V36H28Z" transform="translate(0 -12)"/><path class="cls-1" d="M117.58,65.35a16.49,16.49,0,0,0-1.42-3.45,4.84,4.84,0,0,0-1.37-4l-1.16-1.16a4.79,4.79,0,0,0-3.42-1.41,4.58,4.58,0,0,0-.64,0,16.41,16.41,0,0,0-3.44-1.42A4.79,4.79,0,0,0,102.3,52h-1.64a4.79,4.79,0,0,0-3.83,1.9,16.41,16.41,0,0,0-3.44,1.42,4.58,4.58,0,0,0-.64,0,4.79,4.79,0,0,0-3.42,1.41l-1.16,1.16a4.84,4.84,0,0,0-1.37,4,16.49,16.49,0,0,0-1.42,3.45,4.79,4.79,0,0,0-1.9,3.83v1.64a4.79,4.79,0,0,0,1.9,3.83A16.49,16.49,0,0,0,86.8,78.1a4.84,4.84,0,0,0,1.37,4.05l1.16,1.16a4.79,4.79,0,0,0,3.42,1.41,4.58,4.58,0,0,0,.64,0,16.41,16.41,0,0,0,3.44,1.42,4.79,4.79,0,0,0,3.83,1.9h1.64a4.79,4.79,0,0,0,3.83-1.9,16.41,16.41,0,0,0,3.44-1.42,4.58,4.58,0,0,0,.64,0,4.79,4.79,0,0,0,3.42-1.41l1.16-1.16a4.84,4.84,0,0,0,1.37-4.05,16.49,16.49,0,0,0,1.42-3.45,4.79,4.79,0,0,0,1.9-3.83V69.18A4.79,4.79,0,0,0,117.58,65.35Zm-2.1,5.47a.83.83,0,0,1-.82.83h-.52a12.68,12.68,0,0,1-2.55,6.13l.37.37a.83.83,0,0,1,0,1.17l-1.16,1.16a.83.83,0,0,1-1.17,0l-.37-.37a12.68,12.68,0,0,1-6.13,2.55v.52a.83.83,0,0,1-.83.82h-1.64a.83.83,0,0,1-.83-.82v-.52a12.68,12.68,0,0,1-6.13-2.55l-.37.37a.83.83,0,0,1-1.17,0L91,79.32a.83.83,0,0,1,0-1.17l.37-.37a12.68,12.68,0,0,1-2.55-6.13H88.3a.83.83,0,0,1-.82-.83V69.18a.83.83,0,0,1,.82-.83h.52a12.68,12.68,0,0,1,2.55-6.13L91,61.85a.83.83,0,0,1,0-1.17l1.16-1.16a.83.83,0,0,1,1.17,0h0l.37.37a12.68,12.68,0,0,1,6.13-2.55v-.52a.83.83,0,0,1,.83-.82h1.64a.83.83,0,0,1,.83.82h0v.52a12.68,12.68,0,0,1,6.13,2.55l.37-.37a.83.83,0,0,1,1.17,0L112,60.68a.83.83,0,0,1,0,1.17l-.37.37a12.68,12.68,0,0,1,2.55,6.13h.52a.83.83,0,0,1,.82.83Z" transform="translate(0 -12)"/><path class="cls-1" d="M101.48,62a8,8,0,1,0,8,8A8,8,0,0,0,101.48,62Zm0,12a4,4,0,1,1,4-4A4,4,0,0,1,101.48,74Z" transform="translate(0 -12)"/><path class="cls-1" d="M94,28H90a2,2,0,0,0,0,4h4a2,2,0,0,0,0-4Z" transform="translate(0 -12)"/><path class="cls-1" d="M82,28H78a2,2,0,0,0,0,4h4a2,2,0,0,0,0-4Z" transform="translate(0 -12)"/><path class="cls-1" d="M42,52H38a4,4,0,0,0-4,4V72a2,2,0,0,0,0,4H78a2,2,0,0,0,0-4V48a4,4,0,0,0-4-4H70a4,4,0,0,0-4,4V72H62V52a4,4,0,0,0-4-4H54a4,4,0,0,0-4,4V72H46V56A4,4,0,0,0,42,52Zm0,20H38V56h4ZM70,48h4V72H70ZM54,52h4V72H54Z" transform="translate(0 -12)"/></svg>